<?xml version="1.0" encoding="utf-8"?>
<!-- Generator: Adobe Illustrator 24.0.3, SVG Export Plug-In . SVG Version: 6.00 Build 0)  -->
<svg version="1.1"
	 id="svg13124" xmlns:cc="http://creativecommons.org/ns#" xmlns:dc="http://purl.org/dc/elements/1.1/" xmlns:inkscape="http://www.inkscape.org/namespaces/inkscape" xmlns:rdf="http://www.w3.org/1999/02/22-rdf-syntax-ns#" xmlns:sodipodi="http://sodipodi.sourceforge.net/DTD/sodipodi-0.dtd" xmlns:svg="http://www.w3.org/2000/svg"
	 xmlns="http://www.w3.org/2000/svg" xmlns:xlink="http://www.w3.org/1999/xlink" x="0px" y="0px" viewBox="0 0 145.7 35.9"
	 style="enable-background:new 0 0 145.7 35.9;" xml:space="preserve">
<style type="text/css">
	.st0{fill:#753D16;}
	.st1{fill:#158442;}
	.st2{fill:#3E59EB;}
	.st3{fill:#003E74;}
</style>
<sodipodi:namedview  bordercolor="#666666" borderopacity="1.0" fit-margin-bottom="0" fit-margin-left="0" fit-margin-right="0" fit-margin-top="0" id="base" inkscape:current-layer="layer1" inkscape:cx="72.352889" inkscape:cy="17.441278" inkscape:document-units="mm" inkscape:pageopacity="0.0" inkscape:pageshadow="2" inkscape:window-height="744" inkscape:window-maximized="1" inkscape:window-width="1280" inkscape:window-x="-4" inkscape:window-y="-4" inkscape:zoom="6.1987842" pagecolor="#ffffff" showgrid="false" units="px">
	</sodipodi:namedview>
<g id="layer1" transform="translate(65.256464,2.7006842)" inkscape:groupmode="layer" inkscape:label="Layer 1">
	<g id="g13455" transform="translate(0.13229046,-0.13229157)">
		<path id="path12" inkscape:connector-curvature="0" class="st0" d="M-62.2,17.9c0.3-0.1,0.5-0.1,0.8-0.3c-0.4-0.5-0.9-0.9-1.2-1.4
			c-0.1-0.2,0-0.2,0-0.3c0.1,0,0-0.2,0.1-0.3c0.2,0,0.2-0.3,0.3-0.4V15c0,0,0.1-0.1,0.2,0c0.3,0.4,0.7,0.7,1.1,1
			c0.5,0.3,1,0.6,1.3,1c0,0,0.2,0.1,0.2,0c0-0.4,0.2-0.8,0.4-1.2c0-0.1,0.1-0.3,0.2-0.4c0.1-0.3,0.4-0.4,0.6-0.6
			c0.4-0.2,0.8,0,1.1-0.3c0.1-0.1,0.3,0,0.3,0c0.3,0.1,0.6,0,0.8,0.3c-0.3,0.8-0.3,1.6-0.6,2.4c0,0.2-0.1,0.4,0,0.5
			c0.4,0.1,1.3,0,1.4-0.1c0.5,0,1,0,1.5,0.1c0.4,0.1,0.6,0.3,1,0.5c0.5,0.4,0.5,1.2,0.5,1.8l-0.3,0.3c0,0,0-0.2-0.1-0.2
			c-0.2,0.2-0.6,0.5-0.7,0.5c0,0-0.3-0.3-0.4-0.3c-0.4-0.3-0.9-0.2-1.4-0.2s-1.1,0-1.6,0.2c0.2,0.4,0.5,0.6,0.9,0.9
			c0.5,0.5,1,0.9,1.5,1.4c0.3,0.4,0.7,0.6,0.9,1.1c-0.1,0.1,0,0.1-0.1,0.2c-0.1,0-0.1-0.1-0.2-0.1c-0.1,0-0.1,0.1-0.1,0.2
			c0,0-0.1,0.3-0.2,0.3l-0.3,0.2l-0.3-0.1c0.1,0.1,0.2,0.3,0.1,0.3c-0.2,0-0.3,0-0.5-0.2c-0.7-0.6-1.3-1.2-2-1.8
			c-0.3-0.3-0.4-0.6-0.8-0.8c-0.5,1.2-0.8,2-1.3,3.2c-0.1,0.2-0.2,0.8-0.3,0.8s-0.4-0.4-0.5-0.7c0-0.7,0.1-1,0.1-1.7v-0.1
			c0-1,0.3-1.8,0.3-2.8c0-0.1-0.1-0.1-0.3-0.1c-1.3-0.1-2.5-0.3-3.7-0.5c-0.3,0-0.6,0-0.9-0.2c0,0-0.2-0.1-0.3-0.1c0,0,0,0-0.1,0
			c0.5-0.5,0.9-1.1,1.6-1.3C-62.9,18.2-62.4,18-62.2,17.9L-62.2,17.9z"/>
		<path id="path14" inkscape:connector-curvature="0" class="st1" d="M-50.5,24.7c-0.1,0,0-0.1,0-0.1c0.1-0.1,0.3-0.1,0.3-0.1
			c0.3-0.1,0.7,0,1.1-0.1c0.1,0,0.1-0.1,0.2-0.1c0.3-0.1,0.5-0.2,0.8-0.3c0.1,0,0.3-0.1,0.2-0.3c-0.3-0.3-0.6-0.6-0.8-1
			c-0.1-0.2-0.3-0.4-0.3-0.6s0.2-0.2,0.4-0.1c0.8,0.4,1.3,1.1,1.8,1.7c0.1,0.1,0.2-0.2,0.3-0.3c0.3-0.5,0.4-1.2,0.7-1.7
			c0.1-0.2,0.2-0.4,0.4-0.4c0.3-0.1,0.4-0.3,0.6-0.4c0.2-0.1,0.3,0,0.5-0.1c0.1,0,0.3,0.1,0.4,0.1c0.2-0.1,0.4,0,0.6,0
			c0.1,0.1,0.2,0.2,0.1,0.3c-0.2,0.5-0.3,1-0.6,1.5c-0.3,0.4-0.4,0.8-0.7,1.1v0.1c0.2,0,0.4,0,0.5,0.1c0.5,0.2,1,0.1,1.6,0.2
			c0.3,0.1,0.3,0.5,0.5,0.7c0.1,0.1-0.1,0.2-0.3,0.3c-0.4,0.1-0.8,0-1.1,0.1c-0.6,0.1-1.3,0-1.8,0.3c0.2,0.2,0.4,0.4,0.6,0.6
			c0.2,0.3,0.3,0.5,0.5,0.8s0.3,0.5,0.3,0.8c0.1,0.1,0,0.3,0,0.5c-0.1,0-0.1-0.2-0.1-0.2c-0.1,0-0.1,0.1-0.3,0.1
			c-0.1,0-0.1-0.1-0.2-0.2c-0.1-0.1-0.3-0.3-0.3-0.5c-0.3-0.5-0.7-0.9-1.1-1.2c-0.4,0.9-0.7,1.8-1.3,2.6c0,0.1-0.1,0.1-0.3,0.1
			l-0.1,0.1c0-0.1-0.1-0.1-0.1-0.1c-0.2-0.1-0.4-0.3-0.5-0.5s-0.2-0.4-0.2-0.6l-0.1-0.1c0.1-0.1,0.1-0.3,0.1-0.4
			c0.1-0.1,0.3-0.3,0.3-0.4c0.2-0.4,0.5-0.8,0.5-1.2c-0.8-0.1-1.6-0.1-2.4-0.4c-0.2-0.1-0.4-0.1-0.5-0.3
			C-50.4,24.9-50.4,24.8-50.5,24.7L-50.5,24.7z"/>
		<path id="path16" inkscape:connector-curvature="0" class="st2" d="M-49.5,11.7c0.3-0.6,0.7-1,0.7-1.7c-1.3-0.8-2.9-0.3-4-2.1
			c-0.3-0.4,0-2.1,0.1-2.4c0.3-0.6,0.9-0.6,1.4-0.2l0.5,0.1c0.5-0.1,1.1,0.1,1.7,0.3c0.8,0.1,1.4,0.4,2.1,0.3c0,0,0.1-0.2,0.1-0.4
			c-0.2-1.1-0.4-2-0.7-3.1c-0.1-0.3-0.1-0.6-0.2-0.8c0-0.6-0.5-1.6-0.1-1.9c0,0,0.1,0.1,0.2,0.1c0.1-0.1,0.2-0.3,0.3-0.2
			c1.3,0.9,2.4,2.2,3.6,3.5c0.4,0.4,0.5-0.6,0.8-1c0.1-0.2,0-0.5,0.1-0.7c0.3-0.5,0.3-1.2,0.6-1.7c0.5-0.6,0.7-1.6,1.4-1.8
			c0.5-0.1,1,0,1.4,0.5c0.1,0,0.3,0,0.4,0.1c0.5,0.4,0.8,1,1.3,1.5c0.2,0.2,0.3,0.6,0.2,0.8c-0.1,0.7-0.8,0.8-1.1,1.3
			c-0.7,1.2-1.5,2.4-2.2,3.5C-41,5.9-41.2,6.2-41,6.4c1,1,1.9,2.1,3,2.9c0.7,0.5,1.5,0.4,2.1,1.1c0.5,0.5,0.8,1.1,1,1.8
			c-2.6,1.6-5.5-1.1-8.2-1c-0.2,0-0.2,0.3-0.2,0.5c0.1,1.2,0.3,2.3,0.5,3.4c0,0.8,0.5,1.6,0.6,2.4c0,0.3,0.3,1.1-0.1,1
			c-0.4,0-1-0.1-1.3-0.8c-0.4-0.9-0.8-1.8-1.1-2.8c0-0.3-0.2-0.5,0-0.8c0-0.5-0.3-0.9-0.4-1.2c-0.1-0.2-0.3,0.1-0.4,0.2
			c-0.4,0.5-0.8,1-1.1,1.6c-0.6,0.9-1.3,1.4-2.2,1.8c-0.6,0.3-1.6,0.4-2-0.6c0.2,0,0.4-0.5,0.3-0.6C-51.3,13.6-49.9,12.7-49.5,11.7z
			"/>
		<path id="path20" inkscape:connector-curvature="0" class="st3" d="M-21.3,28.2h-2.4V15.6h2.4v2.1c0.9-1.4,2-2.3,4.1-2.3h0.2v2
			h-0.2c-1,0-1.8,0.3-2.5,1c-0.9,0.8-1.5,2.1-1.6,3.2V28.2z"/>
		<path id="path24" inkscape:connector-curvature="0" class="st3" d="M-11.9,28.4c-2.8,0-4.1-1.8-4.1-3.5c0-2.7,2.3-4.1,8.1-5.1
			v-0.5c0-1.4-0.8-2.1-2.5-2.1c-2.2,0-2.9,1.4-3.2,1.8v0.2l-2.1-0.9l0.1-0.2c0.9-1.6,3-2.7,5.2-2.7c2.4,0,4.9,1.2,4.9,3.8v6.2
			c0,1.3,0.1,1.9,0.3,2.6v0.2h-2.4l-0.2-1.5C-8.7,27.6-10,28.4-11.9,28.4L-11.9,28.4z M-7.9,21.6c-3.9,0.7-5.8,1.8-5.8,3.3
			c0,1,1.1,1.7,2,1.7c1.2,0,2.7-0.8,3.8-1.9C-7.9,24.7-7.9,21.6-7.9,21.6z"/>
		<path id="path28" inkscape:connector-curvature="0" class="st3" d="M2.7,28.2h-2.9l-4-12.6h2.4l3.2,9.9l3.2-9.9h2.1L2.7,28.2z"/>
		<path id="path32" inkscape:connector-curvature="0" class="st3" d="M23.6,28.2h-2.4V11.5l2.4-1V28.2z"/>
		<path id="path36" inkscape:connector-curvature="0" class="st3" d="M31.4,28.4c-3.4,0-5.7-2.6-5.7-6.5s2.3-6.5,5.7-6.5
			s5.7,2.6,5.7,6.5S34.8,28.4,31.4,28.4z M31.4,17.2c-2.1,0-3.3,1.8-3.3,4.7s1.3,4.7,3.3,4.7s3.3-1.8,3.3-4.7S33.5,17.2,31.4,17.2z"
			/>
		<path id="path40" inkscape:connector-curvature="0" class="st3" d="M44.1,28.4c-3.4,0-5.7-2.6-5.7-6.5s2.3-6.5,5.7-6.5
			c2.4,0,4.2,1.1,5.1,3.4l0.1,0.2L47,19.7v-0.1c-0.3-1.1-1.1-2.3-2.9-2.3c-2.1,0-3.3,1.7-3.3,4.7s1.2,4.7,3.3,4.7
			c1.6,0,2.4-0.5,3.4-2.2l0.1-0.1l2,0.7l-0.1,0.2C48,27.6,46.5,28.4,44.1,28.4L44.1,28.4z"/>
		<path id="path44" inkscape:connector-curvature="0" class="st3" d="M53.7,28.2h-2.4V15.6h2.4V28.2z"/>
		<path id="path48" inkscape:connector-curvature="0" class="st3" d="M-28.6,28.4c-1.8,0-2.9-0.4-3.2-2.1v-8.9h-1.9v-1.8h1.9v-3.4
			l2.4-1v4.5h3l-0.5,1.8h-2.5V26c0,0.3,0.2,0.7,1.3,0.7c0.6,0,1.1,0,1.8-0.2h0.3l-0.5,1.8h-0.1C-27.2,28.4-27.7,28.4-28.6,28.4
			L-28.6,28.4z"/>
		<path id="path54" inkscape:connector-curvature="0" class="st3" d="M66.5,32.8c-0.6,0-1.4-0.1-1.7-0.1h-0.2l0.5-1.8h0.1
			c0,0,0.1,0,0.2,0c0.2,0,0.5,0,0.8,0c1.2,0,2.6-0.3,3.2-2.8l-4.5-12.6h2.2v0.1l3.3,9l2.9-9.1h2.5l-4.6,13.6
			C70.2,32.4,67.8,32.8,66.5,32.8z"/>
		<path id="path60" inkscape:connector-curvature="0" class="st3" d="M61.2,28.4c-1.8,0-2.9-0.4-3.2-2.1l0,0v-8.9h-1.9v-1.8H58v-3.4
			l2.4-1v4.5h3L63,17.4h-2.5V26c0,0.3,0.2,0.7,1.3,0.7c0.6,0,1.1,0,1.8-0.2h0.3l-0.5,1.8h-0.1C62.6,28.4,62.1,28.4,61.2,28.4z"/>
		<path id="path68" inkscape:connector-curvature="0" class="st3" d="M13.7,28.4c-1.6,0-3-0.5-4.1-1.6c-1.3-1.2-1.9-2.9-1.9-5
			c0-3.9,2.3-6.5,5.7-6.5c1.4,0,2.8,0.5,3.7,1.3c1.1,1,1.6,2.5,1.6,4.4v1.3H10c0.1,2.4,1.6,4.2,3.6,4.2c1.4,0,2.6-0.7,3.4-1.9
			l0.1-0.2l1.5,1.5L18.5,26C17,28.3,16.1,28.4,13.7,28.4z M10.1,20.6h6.2c0-2.1-1.1-3.4-2.9-3.4C11.5,17.2,10.3,18.4,10.1,20.6z"/>
		<path id="path74" inkscape:connector-curvature="0" class="st3" d="M53.7,13.8h-2.4v-2.4h2.4V13.8z"/>
		<path id="path84" inkscape:connector-curvature="0" class="st3" d="M76.8,16.5c0.1-0.2,0.2-0.3,0.3-0.5c0.1-0.1,0.3-0.3,0.5-0.3
			c0.2-0.1,0.4-0.1,0.6-0.1s0.4,0,0.6,0.1s0.3,0.2,0.5,0.3c0.1,0.1,0.3,0.3,0.3,0.5s0.1,0.4,0.1,0.6s0,0.4-0.1,0.6s-0.2,0.3-0.3,0.5
			c-0.1,0.1-0.3,0.3-0.5,0.3c-0.2,0.1-0.4,0.1-0.6,0.1s-0.4,0-0.6-0.1s-0.3-0.2-0.5-0.3c-0.1-0.1-0.3-0.3-0.3-0.5
			c-0.1-0.2-0.1-0.4-0.1-0.6C76.7,16.9,76.7,16.7,76.8,16.5z M77.1,17.7c0.1,0.2,0.2,0.3,0.3,0.4c0.1,0.1,0.3,0.2,0.4,0.3
			c0.2,0.1,0.3,0.1,0.5,0.1s0.3,0,0.5-0.1s0.3-0.2,0.4-0.3c0.1-0.1,0.2-0.3,0.3-0.4c0.1-0.2,0.1-0.3,0.1-0.5s0-0.3-0.1-0.5
			s-0.2-0.3-0.3-0.4C79,16.1,78.9,16,78.8,16c-0.2-0.1-0.3-0.1-0.5-0.1s-0.3,0-0.5,0.1c-0.2,0.1-0.3,0.2-0.4,0.3
			c-0.1,0.1-0.2,0.3-0.3,0.4C77,16.8,77,17,77,17.2C77,17.3,77,17.5,77.1,17.7z M78.3,16.3c0.2,0,0.4,0,0.5,0.1s0.2,0.2,0.2,0.4
			c0,0.2,0,0.3-0.1,0.3c-0.1,0.1-0.2,0.1-0.3,0.1L79,18h-0.3l-0.5-0.8h-0.3V18h-0.3v-1.8L78.3,16.3L78.3,16.3z M78.2,17.1
			c0,0,0.1,0,0.2,0s0.1,0,0.2,0c0,0,0.1,0,0.1-0.1c0,0,0-0.1,0-0.2v-0.1c0,0,0,0-0.1-0.1h-0.1h-0.1H78v0.5L78.2,17.1z"/>
		<path id="path86" inkscape:connector-curvature="0" class="st3" d="M76.8,16.5c0.1-0.2,0.2-0.3,0.3-0.5c0.1-0.1,0.3-0.3,0.5-0.3
			c0.2-0.1,0.4-0.1,0.6-0.1s0.4,0,0.6,0.1s0.3,0.2,0.5,0.3c0.1,0.1,0.3,0.3,0.3,0.5s0.1,0.4,0.1,0.6s0,0.4-0.1,0.6s-0.2,0.3-0.3,0.5
			c-0.1,0.1-0.3,0.3-0.5,0.3c-0.2,0.1-0.4,0.1-0.6,0.1s-0.4,0-0.6-0.1s-0.3-0.2-0.5-0.3c-0.1-0.1-0.3-0.3-0.3-0.5
			c-0.1-0.2-0.1-0.4-0.1-0.6C76.7,16.9,76.7,16.7,76.8,16.5z M77.1,17.7c0.1,0.2,0.2,0.3,0.3,0.4c0.1,0.1,0.3,0.2,0.4,0.3
			c0.2,0.1,0.3,0.1,0.5,0.1s0.3,0,0.5-0.1s0.3-0.2,0.4-0.3c0.1-0.1,0.2-0.3,0.3-0.4c0.1-0.2,0.1-0.3,0.1-0.5s0-0.3-0.1-0.5
			s-0.2-0.3-0.3-0.4C79,16.1,78.9,16,78.8,16c-0.2-0.1-0.3-0.1-0.5-0.1s-0.3,0-0.5,0.1c-0.2,0.1-0.3,0.2-0.4,0.3
			c-0.1,0.1-0.2,0.3-0.3,0.4C77,16.8,77,17,77,17.2C77,17.3,77,17.5,77.1,17.7z M78.3,16.3c0.2,0,0.4,0,0.5,0.1s0.2,0.2,0.2,0.4
			c0,0.2,0,0.3-0.1,0.3c-0.1,0.1-0.2,0.1-0.3,0.1L79,18h-0.3l-0.5-0.8h-0.3V18h-0.3v-1.8L78.3,16.3L78.3,16.3z M78.2,17.1
			c0,0,0.1,0,0.2,0s0.1,0,0.2,0c0,0,0.1,0,0.1-0.1c0,0,0-0.1,0-0.2v-0.1c0,0,0,0-0.1-0.1h-0.1h-0.1H78v0.5L78.2,17.1z"/>
	</g>
</g>
</svg>
